<svg xmlns="http://www.w3.org/2000/svg" xmlns:xlink="http://www.w3.org/1999/xlink" width="500" zoomAndPan="magnify" viewBox="0 0 375 374.999991" height="500" preserveAspectRatio="xMidYMid meet" version="1.0"><defs><g/><clipPath id="744b95af86"><path d="M 131 192 L 276.292969 192 L 276.292969 223 L 131 223 Z M 131 192 " clip-rule="nonzero"/></clipPath><clipPath id="ab795dcb12"><path d="M 210 107.441406 L 222 107.441406 L 222 150 L 210 150 Z M 210 107.441406 " clip-rule="nonzero"/></clipPath><clipPath id="b745569c19"><path d="M 211 107.441406 L 222 107.441406 L 222 150 L 211 150 Z M 211 107.441406 " clip-rule="nonzero"/></clipPath></defs><g clip-path="url(#744b95af86)"><path fill="#ed1c24" d="M 276.1875 200.082031 C 276.074219 204.324219 269.046875 199.242188 263.75 197.296875 C 256.003906 194.449219 246.535156 194.9375 240.914062 195.980469 C 238.117188 196.5 235.738281 204.371094 226.195312 211.484375 C 217.601562 217.894531 203.195312 223.6875 177.445312 222.929688 C 133.472656 221.636719 131.527344 192.5 131.527344 192.5 L 265.992188 192.445312 C 271.632812 192.34375 276.300781 195.835938 276.1875 200.082031 " fill-opacity="1" fill-rule="nonzero"/></g><path fill="#40b93c" d="M 239.523438 158.664062 C 239.523438 158.664062 241.335938 172.851562 232.183594 182.097656 C 225.941406 188.398438 216.457031 189.453125 210.585938 187.242188 C 219.539062 179.527344 223.453125 171.304688 223.550781 171.210938 C 223.402344 171.28125 216.882812 177.945312 207.132812 183.222656 C 210.234375 177.707031 207.980469 167.136719 220.070312 161.65625 C 228.996094 157.605469 239.523438 158.664062 239.523438 158.664062 " fill-opacity="1" fill-rule="nonzero"/><path fill="#27963c" d="M 239.523438 158.664062 C 239.523438 158.664062 241.335938 172.851562 232.183594 182.097656 C 225.941406 188.398438 216.457031 189.453125 210.585938 187.242188 C 234.585938 187.007812 239.523438 158.664062 239.523438 158.664062 " fill-opacity="1" fill-rule="nonzero"/><path fill="#40b93c" d="M 135.125 148.734375 C 135.125 148.734375 130.046875 164.941406 138.828125 177.671875 C 144.816406 186.351562 155.6875 189.574219 163.011719 188.222656 C 154.152344 177.324219 151.285156 166.882812 151.1875 166.753906 C 151.347656 166.867188 157.585938 176.03125 167.890625 184.242188 C 165.410156 177.144531 170.246094 165.261719 157.25 156.3125 C 147.652344 149.707031 135.125 148.734375 135.125 148.734375 " fill-opacity="1" fill-rule="nonzero"/><path fill="#27963c" d="M 135.125 148.734375 C 135.125 148.734375 130.046875 164.941406 138.828125 177.671875 C 144.816406 186.351562 155.6875 189.574219 163.011719 188.222656 C 135 182.914062 135.125 148.734375 135.125 148.734375 " fill-opacity="1" fill-rule="nonzero"/><path fill="#40b93c" d="M 205.335938 148.496094 C 205.085938 160.675781 197.894531 171.046875 190.03125 176.328125 C 190.824219 173.3125 191.375 169.484375 191.40625 165.273438 C 191.496094 153.457031 187.925781 145.296875 187.925781 145.296875 C 187.925781 145.296875 184.355469 153.457031 184.441406 165.273438 C 184.472656 169.484375 185.03125 173.3125 185.816406 176.328125 C 177.953125 171.046875 170.761719 160.675781 170.515625 148.496094 C 170.085938 127.492188 187.925781 112.980469 187.925781 112.980469 C 188.199219 113.203125 205.757812 127.652344 205.335938 148.496094 " fill-opacity="1" fill-rule="nonzero"/><path fill="#27963c" d="M 205.335938 148.496094 C 205.085938 160.675781 197.894531 171.046875 190.03125 176.328125 C 209.675781 149.648438 188.160156 113.371094 187.925781 112.980469 C 188.199219 113.203125 205.757812 127.652344 205.335938 148.496094 " fill-opacity="1" fill-rule="nonzero"/><g clip-path="url(#ab795dcb12)"><path fill="#a7a5a6" d="M 216.042969 130.566406 C 216.082031 138.339844 214.855469 144.476562 211.675781 149.09375 C 213.488281 143.730469 212.183594 135.214844 211.460938 131.34375 C 208.304688 114.46875 214.195312 107.679688 221.171875 107.460938 C 211.023438 113.816406 215.996094 121.132812 216.042969 130.566406 " fill-opacity="1" fill-rule="nonzero"/></g><path fill="#a7a5a6" d="M 223.953125 146.15625 C 223.351562 151.628906 220.566406 155.242188 216.632812 158.539062 C 220.261719 153.511719 219.9375 146.386719 219.996094 143.40625 C 220.160156 135.03125 221.664062 132.296875 224.675781 130.273438 C 221.722656 135.359375 224.695312 139.398438 223.953125 146.15625 " fill-opacity="1" fill-rule="nonzero"/><g clip-path="url(#b745569c19)"><path fill="#7b7979" d="M 216.042969 130.566406 C 216.082031 138.339844 214.855469 144.476562 211.675781 149.09375 C 212.847656 146.25 214.90625 141.679688 213.125 125.210938 C 211.339844 108.742188 221.171875 107.460938 221.171875 107.460938 C 211.023438 113.816406 215.996094 121.132812 216.042969 130.566406 " fill-opacity="1" fill-rule="nonzero"/></g><path fill="#7b7979" d="M 223.953125 146.15625 C 223.351562 151.628906 220.566406 155.242188 216.632812 158.539062 C 219.8125 155.71875 222.542969 147.851562 222.105469 140.328125 C 221.675781 132.914062 224.589844 130.34375 224.675781 130.273438 C 221.722656 135.359375 224.695312 139.398438 223.953125 146.15625 " fill-opacity="1" fill-rule="nonzero"/><path fill="#bf1b2c" d="M 226.195312 211.484375 C 217.601562 217.894531 203.195312 223.6875 177.445312 222.929688 C 133.472656 221.636719 131.527344 192.5 131.527344 192.5 C 131.527344 192.5 172.523438 229.679688 226.195312 211.484375 " fill-opacity="1" fill-rule="nonzero"/><path fill="#80cc28" d="M 180.660156 180.15625 C 180.660156 182.570312 178.710938 184.527344 176.304688 184.527344 C 173.898438 184.527344 171.949219 182.570312 171.949219 180.15625 C 171.949219 177.738281 173.898438 175.78125 176.304688 175.78125 C 178.710938 175.78125 180.660156 177.738281 180.660156 180.15625 " fill-opacity="1" fill-rule="nonzero"/><path fill="#80cc28" d="M 194.078125 185.425781 C 194.078125 187.472656 192.429688 189.128906 190.390625 189.128906 C 188.355469 189.128906 186.703125 187.472656 186.703125 185.425781 C 186.703125 183.382812 188.355469 181.722656 190.390625 181.722656 C 192.429688 181.722656 194.078125 183.382812 194.078125 185.425781 " fill-opacity="1" fill-rule="nonzero"/><path fill="#80cc28" d="M 164.980469 142.929688 C 164.980469 146.203125 162.335938 148.859375 159.074219 148.859375 C 155.8125 148.859375 153.167969 146.203125 153.167969 142.929688 C 153.167969 139.652344 155.8125 137 159.074219 137 C 162.335938 137 164.980469 139.652344 164.980469 142.929688 " fill-opacity="1" fill-rule="nonzero"/><path fill="#80cc28" d="M 204.628906 175.78125 C 204.628906 177.0625 203.597656 178.097656 202.324219 178.097656 C 201.046875 178.097656 200.015625 177.0625 200.015625 175.78125 C 200.015625 174.503906 201.046875 173.464844 202.324219 173.464844 C 203.597656 173.464844 204.628906 174.503906 204.628906 175.78125 " fill-opacity="1" fill-rule="nonzero"/><g fill="#bf1b2c" fill-opacity="1"><g transform="translate(157.971451, 265.574324)"><g><path d="M 5 -4.765625 L 2.109375 -4.765625 L 2.109375 -3.390625 L 4.78125 -3.390625 L 4.78125 -2.1875 L 2.109375 -2.1875 L 2.109375 0 L 0.59375 0 L 0.59375 -5.953125 L 5 -5.953125 Z M 5 -4.765625 "/></g></g></g><g fill="#bf1b2c" fill-opacity="1"><g transform="translate(163.605104, 265.574324)"><g><path d="M 3.421875 -6 C 4.335938 -6 5.101562 -5.710938 5.71875 -5.140625 C 6.332031 -4.566406 6.640625 -3.847656 6.640625 -2.984375 C 6.640625 -2.117188 6.332031 -1.394531 5.71875 -0.8125 C 5.101562 -0.226562 4.335938 0.0625 3.421875 0.0625 C 2.503906 0.0625 1.738281 -0.222656 1.125 -0.796875 C 0.507812 -1.378906 0.203125 -2.109375 0.203125 -2.984375 C 0.203125 -3.847656 0.507812 -4.566406 1.125 -5.140625 C 1.738281 -5.710938 2.503906 -6 3.421875 -6 Z M 3.4375 -4.734375 C 2.96875 -4.734375 2.566406 -4.5625 2.234375 -4.21875 C 1.910156 -3.882812 1.75 -3.46875 1.75 -2.96875 C 1.75 -2.476562 1.914062 -2.0625 2.25 -1.71875 C 2.582031 -1.375 2.976562 -1.203125 3.4375 -1.203125 C 3.894531 -1.203125 4.28125 -1.375 4.59375 -1.71875 C 4.914062 -2.0625 5.078125 -2.476562 5.078125 -2.96875 C 5.078125 -3.46875 4.914062 -3.882812 4.59375 -4.21875 C 4.28125 -4.5625 3.894531 -4.734375 3.4375 -4.734375 Z M 3.4375 -4.734375 "/></g></g></g><g fill="#bf1b2c" fill-opacity="1"><g transform="translate(170.946698, 265.574324)"><g><path d="M 4.1875 0 L 3.296875 -1.671875 L 2.109375 -1.671875 L 2.109375 0 L 0.59375 0 L 0.59375 -5.953125 L 3.25 -5.953125 C 4.039062 -5.953125 4.648438 -5.769531 5.078125 -5.40625 C 5.515625 -5.050781 5.734375 -4.539062 5.734375 -3.875 C 5.734375 -2.957031 5.375 -2.320312 4.65625 -1.96875 L 5.90625 0 Z M 2.109375 -2.859375 L 3.25 -2.859375 C 3.582031 -2.859375 3.835938 -2.941406 4.015625 -3.109375 C 4.203125 -3.273438 4.296875 -3.515625 4.296875 -3.828125 C 4.296875 -4.128906 4.203125 -4.359375 4.015625 -4.515625 C 3.835938 -4.679688 3.582031 -4.765625 3.25 -4.765625 L 2.109375 -4.765625 Z M 2.109375 -2.859375 "/></g></g></g><g fill="#bf1b2c" fill-opacity="1"><g transform="translate(177.600022, 265.574324)"><g/></g></g><g fill="#bf1b2c" fill-opacity="1"><g transform="translate(180.072716, 265.574324)"><g><path d="M 0.59375 -5.953125 L 3.15625 -5.953125 C 4.09375 -5.953125 4.851562 -5.675781 5.4375 -5.125 C 6.019531 -4.570312 6.3125 -3.851562 6.3125 -2.96875 C 6.3125 -2.09375 6.015625 -1.378906 5.421875 -0.828125 C 4.828125 -0.273438 4.050781 0 3.09375 0 L 0.59375 0 Z M 2.109375 -4.75 L 2.109375 -1.203125 L 3.1875 -1.203125 C 3.65625 -1.203125 4.035156 -1.363281 4.328125 -1.6875 C 4.628906 -2.019531 4.78125 -2.445312 4.78125 -2.96875 C 4.78125 -3.488281 4.625 -3.914062 4.3125 -4.25 C 4 -4.582031 3.601562 -4.75 3.125 -4.75 Z M 2.109375 -4.75 "/></g></g></g><g fill="#bf1b2c" fill-opacity="1"><g transform="translate(187.091423, 265.574324)"><g><path d="M 2.109375 0 L 0.59375 0 L 0.59375 -5.953125 L 2.109375 -5.953125 Z M 2.109375 0 "/></g></g></g><g fill="#bf1b2c" fill-opacity="1"><g transform="translate(190.294871, 265.574324)"><g><path d="M 6.09375 0 L 4.75 0 L 2.015625 -3.65625 L 2.015625 0 L 0.59375 0 L 0.59375 -5.953125 L 1.921875 -5.953125 L 4.671875 -2.28125 L 4.671875 -5.953125 L 6.09375 -5.953125 Z M 6.09375 0 "/></g></g></g><g fill="#bf1b2c" fill-opacity="1"><g transform="translate(197.475022, 265.574324)"><g><path d="M 6.09375 0 L 4.75 0 L 2.015625 -3.65625 L 2.015625 0 L 0.59375 0 L 0.59375 -5.953125 L 1.921875 -5.953125 L 4.671875 -2.28125 L 4.671875 -5.953125 L 6.09375 -5.953125 Z M 6.09375 0 "/></g></g></g><g fill="#bf1b2c" fill-opacity="1"><g transform="translate(204.655172, 265.574324)"><g><path d="M 5.25 -4.765625 L 2.109375 -4.765625 L 2.109375 -3.578125 L 4.953125 -3.578125 L 4.953125 -2.390625 L 2.109375 -2.390625 L 2.109375 -1.1875 L 5.34375 -1.1875 L 5.34375 0 L 0.59375 0 L 0.59375 -5.953125 L 5.25 -5.953125 Z M 5.25 -4.765625 "/></g></g></g><g fill="#bf1b2c" fill-opacity="1"><g transform="translate(210.883634, 265.574324)"><g><path d="M 4.1875 0 L 3.296875 -1.671875 L 2.109375 -1.671875 L 2.109375 0 L 0.59375 0 L 0.59375 -5.953125 L 3.25 -5.953125 C 4.039062 -5.953125 4.648438 -5.769531 5.078125 -5.40625 C 5.515625 -5.050781 5.734375 -4.539062 5.734375 -3.875 C 5.734375 -2.957031 5.375 -2.320312 4.65625 -1.96875 L 5.90625 0 Z M 2.109375 -2.859375 L 3.25 -2.859375 C 3.582031 -2.859375 3.835938 -2.941406 4.015625 -3.109375 C 4.203125 -3.273438 4.296875 -3.515625 4.296875 -3.828125 C 4.296875 -4.128906 4.203125 -4.359375 4.015625 -4.515625 C 3.835938 -4.679688 3.582031 -4.765625 3.25 -4.765625 L 2.109375 -4.765625 Z M 2.109375 -2.859375 "/></g></g></g><g fill="#27963c" fill-opacity="1"><g transform="translate(78.833645, 253.111771)"><g><path d="M 6.914062 0 C 8.59375 0.113281 9.503906 -1.648438 10.328125 -2.84375 C 10.953125 -1.335938 12.0625 0.457031 13.941406 -0.140625 C 15.59375 -0.625 16.789062 -3.1875 17.640625 -4.496094 C 18.980469 -6.601562 23.589844 -13.257812 20.289062 -15.394531 C 16.789062 -17.640625 14.3125 -8.109375 13.515625 -6.175781 C 12.632812 -8.648438 15.707031 -11.070312 15.082031 -13.828125 C 14.425781 -16.671875 11.582031 -15.679688 10.5 -13.742188 C 9.105469 -16.445312 6.230469 -16.277344 6.457031 -13.003906 C 6.515625 -12.035156 6.855469 -11.070312 7.199219 -10.128906 C 7.371094 -9.675781 7.625 -9.160156 7.738281 -8.679688 C 8.023438 -7.597656 7.769531 -7.253906 7.3125 -6.175781 C 6.601562 -8.167969 5.863281 -10.15625 5.035156 -12.121094 C 4.582031 -13.175781 4.125 -14.539062 3.214844 -15.308594 C 0.398438 -17.640625 0.140625 -12.945312 0.625 -11.269531 C 1.449219 -8.28125 2.902344 -5.378906 4.238281 -2.589844 C 4.78125 -1.449219 5.492188 -0.0859375 6.914062 0 Z M 6.914062 0 "/></g></g></g><g fill="#27963c" fill-opacity="1"><g transform="translate(102.38907, 253.111771)"><g><path d="M 4.039062 -0.539062 C 5.121094 -1.59375 4.921875 -3.699219 4.980469 -5.066406 C 5.007812 -6.0625 4.78125 -6.828125 5.464844 -7.226562 C 6.230469 -7.683594 8.308594 -7.597656 9.21875 -7.738281 C 9.132812 -5.890625 8.480469 -3.042969 9.84375 -1.449219 C 11.949219 0.96875 12.777344 -3.441406 12.859375 -4.78125 C 13.03125 -6.914062 14.625 -17.953125 12.746094 -19.519531 C 11.125 -20.886719 9.132812 -19.320312 8.679688 -17.667969 C 8.136719 -15.734375 8.707031 -13.402344 8.933594 -11.46875 C 7.710938 -11.46875 6.488281 -11.550781 5.234375 -11.496094 C 5.464844 -13.742188 6.628906 -20.601562 2.046875 -18.921875 C 0.371094 -18.296875 0.398438 -16.558594 0.425781 -15.023438 C 0.425781 -12.460938 0.511719 -9.902344 0.570312 -7.339844 C 0.597656 -5.40625 0.339844 -4.070312 0.738281 -2.164062 C 1.023438 -0.683594 2.617188 0.824219 4.039062 -0.539062 Z M 4.039062 -0.539062 "/></g></g></g><g fill="#27963c" fill-opacity="1"><g transform="translate(118.292028, 253.111771)"><g><path d="M 2.191406 -0.171875 C 3.214844 0.140625 4.496094 0.0585938 5.179688 -0.796875 C 5.917969 -1.707031 5.691406 -3.953125 6.515625 -4.636719 C 6.972656 -4.980469 10.953125 -4.667969 11.097656 -4.550781 C 11.863281 -3.898438 12.007812 -2.078125 12.578125 -1.253906 C 13.375 -0.0859375 14.425781 -0.0273438 15.535156 -0.910156 C 16.644531 -1.820312 16.53125 -2.761719 16.078125 -4.011719 L 12.746094 -13.375 C 11.949219 -15.648438 11.410156 -19.148438 8.421875 -19.09375 C 5.777344 -19.007812 4.46875 -17.414062 3.699219 -15.082031 C 2.789062 -12.320312 1.933594 -9.53125 1.253906 -6.714844 C 0.738281 -4.609375 -0.738281 -1.023438 2.191406 -0.171875 Z M 7.824219 -8.679688 C 8.082031 -9.53125 8.367188 -10.386719 8.621094 -11.238281 C 8.847656 -10.472656 9.105469 -9.730469 9.359375 -8.960938 C 8.847656 -8.878906 8.335938 -8.765625 7.824219 -8.679688 Z M 7.824219 -8.679688 "/></g></g></g><g fill="#27963c" fill-opacity="1"><g transform="translate(136.812185, 253.111771)"><g><path d="M 7.054688 0 C 11.609375 -0.0859375 9.304688 -11.324219 8.960938 -13.601562 C 10.101562 -13.601562 12.261719 -13.375 13.03125 -14.367188 C 13.828125 -15.363281 13.117188 -16.730469 12.09375 -17.214844 C 10.585938 -17.925781 8.621094 -17.667969 7 -17.753906 C 5.546875 -17.839844 2.960938 -18.550781 1.648438 -17.953125 C 0.511719 -17.441406 0.113281 -16.078125 0.65625 -14.996094 C 1.449219 -13.316406 3.640625 -13.542969 5.179688 -13.628906 C 5.292969 -10.414062 4.949219 -7.285156 4.835938 -4.097656 C 4.75 -2.476562 4.835938 0.0273438 7.054688 0 Z M 7.054688 0 "/></g></g></g><g fill="#27963c" fill-opacity="1"><g transform="translate(151.861709, 253.111771)"><g/></g></g><g fill="#27963c" fill-opacity="1"><g transform="translate(160.652708, 253.111771)"><g><path d="M 7.054688 0 C 11.609375 -0.0859375 9.304688 -11.324219 8.960938 -13.601562 C 10.101562 -13.601562 12.261719 -13.375 13.03125 -14.367188 C 13.828125 -15.363281 13.117188 -16.730469 12.09375 -17.214844 C 10.585938 -17.925781 8.621094 -17.667969 7 -17.753906 C 5.546875 -17.839844 2.960938 -18.550781 1.648438 -17.953125 C 0.511719 -17.441406 0.113281 -16.078125 0.65625 -14.996094 C 1.449219 -13.316406 3.640625 -13.542969 5.179688 -13.628906 C 5.292969 -10.414062 4.949219 -7.285156 4.835938 -4.097656 C 4.75 -2.476562 4.835938 0.0273438 7.054688 0 Z M 7.054688 0 "/></g></g></g><g fill="#27963c" fill-opacity="1"><g transform="translate(175.702231, 253.111771)"><g><path d="M 4.039062 -0.539062 C 5.121094 -1.59375 4.921875 -3.699219 4.980469 -5.066406 C 5.007812 -6.0625 4.78125 -6.828125 5.464844 -7.226562 C 6.230469 -7.683594 8.308594 -7.597656 9.21875 -7.738281 C 9.132812 -5.890625 8.480469 -3.042969 9.84375 -1.449219 C 11.949219 0.96875 12.777344 -3.441406 12.859375 -4.78125 C 13.03125 -6.914062 14.625 -17.953125 12.746094 -19.519531 C 11.125 -20.886719 9.132812 -19.320312 8.679688 -17.667969 C 8.136719 -15.734375 8.707031 -13.402344 8.933594 -11.46875 C 7.710938 -11.46875 6.488281 -11.550781 5.234375 -11.496094 C 5.464844 -13.742188 6.628906 -20.601562 2.046875 -18.921875 C 0.371094 -18.296875 0.398438 -16.558594 0.425781 -15.023438 C 0.425781 -12.460938 0.511719 -9.902344 0.570312 -7.339844 C 0.597656 -5.40625 0.339844 -4.070312 0.738281 -2.164062 C 1.023438 -0.683594 2.617188 0.824219 4.039062 -0.539062 Z M 4.039062 -0.539062 "/></g></g></g><g fill="#27963c" fill-opacity="1"><g transform="translate(191.605184, 253.111771)"><g><path d="M 4.722656 -0.0585938 C 6.488281 -0.140625 8.25 -0.113281 9.988281 -0.199219 C 11.4375 -0.285156 12.519531 -0.484375 13.089844 -1.90625 C 13.429688 -2.84375 13.628906 -4.550781 12.691406 -5.265625 C 11.636719 -6.03125 9.988281 -5.691406 8.792969 -5.746094 C 7.710938 -5.804688 4.921875 -6.6875 6.542969 -8.195312 C 7.511719 -9.105469 9.019531 -8.023438 10.15625 -8.335938 C 11.410156 -8.707031 11.695312 -10.128906 11.550781 -11.296875 C 11.46875 -12.292969 11.125 -12.859375 10.15625 -13.230469 C 9.21875 -13.574219 7.253906 -12.945312 6.515625 -13.488281 C 5.519531 -14.199219 6.429688 -15.535156 7.140625 -15.679688 C 8.222656 -15.933594 9.390625 -15.195312 10.527344 -15.648438 C 11.523438 -16.046875 12.035156 -16.988281 11.894531 -18.066406 C 11.695312 -19.574219 10.441406 -19.832031 9.132812 -20.03125 C 7.199219 -20.316406 2.078125 -21.285156 1.222656 -18.894531 C 0.855469 -17.867188 1.054688 -16.445312 0.996094 -15.394531 C 0.9375 -13.488281 0.855469 -11.582031 0.769531 -9.675781 C 0.683594 -8.050781 0.625 -6.429688 0.539062 -4.808594 C 0.484375 -3.527344 0.113281 -1.679688 1.136719 -0.683594 C 2.078125 0.226562 3.585938 -0.0273438 4.722656 -0.0585938 Z M 4.722656 -0.0585938 "/></g></g></g><g fill="#27963c" fill-opacity="1"><g transform="translate(207.081425, 253.111771)"><g/></g></g><g fill="#27963c" fill-opacity="1"><g transform="translate(215.872424, 253.111771)"><g><path d="M 4.039062 -0.539062 C 5.121094 -1.59375 4.921875 -3.699219 4.980469 -5.066406 C 5.007812 -6.0625 4.78125 -6.828125 5.464844 -7.226562 C 6.230469 -7.683594 8.308594 -7.597656 9.21875 -7.738281 C 9.132812 -5.890625 8.480469 -3.042969 9.84375 -1.449219 C 11.949219 0.96875 12.777344 -3.441406 12.859375 -4.78125 C 13.03125 -6.914062 14.625 -17.953125 12.746094 -19.519531 C 11.125 -20.886719 9.132812 -19.320312 8.679688 -17.667969 C 8.136719 -15.734375 8.707031 -13.402344 8.933594 -11.46875 C 7.710938 -11.46875 6.488281 -11.550781 5.234375 -11.496094 C 5.464844 -13.742188 6.628906 -20.601562 2.046875 -18.921875 C 0.371094 -18.296875 0.398438 -16.558594 0.425781 -15.023438 C 0.425781 -12.460938 0.511719 -9.902344 0.570312 -7.339844 C 0.597656 -5.40625 0.339844 -4.070312 0.738281 -2.164062 C 1.023438 -0.683594 2.617188 0.824219 4.039062 -0.539062 Z M 4.039062 -0.539062 "/></g></g></g><g fill="#27963c" fill-opacity="1"><g transform="translate(231.775384, 253.111771)"><g><path d="M 4.722656 -0.0585938 C 6.488281 -0.140625 8.25 -0.113281 9.988281 -0.199219 C 11.4375 -0.285156 12.519531 -0.484375 13.089844 -1.90625 C 13.429688 -2.84375 13.628906 -4.550781 12.691406 -5.265625 C 11.636719 -6.03125 9.988281 -5.691406 8.792969 -5.746094 C 7.710938 -5.804688 4.921875 -6.6875 6.542969 -8.195312 C 7.511719 -9.105469 9.019531 -8.023438 10.15625 -8.335938 C 11.410156 -8.707031 11.695312 -10.128906 11.550781 -11.296875 C 11.46875 -12.292969 11.125 -12.859375 10.15625 -13.230469 C 9.21875 -13.574219 7.253906 -12.945312 6.515625 -13.488281 C 5.519531 -14.199219 6.429688 -15.535156 7.140625 -15.679688 C 8.222656 -15.933594 9.390625 -15.195312 10.527344 -15.648438 C 11.523438 -16.046875 12.035156 -16.988281 11.894531 -18.066406 C 11.695312 -19.574219 10.441406 -19.832031 9.132812 -20.03125 C 7.199219 -20.316406 2.078125 -21.285156 1.222656 -18.894531 C 0.855469 -17.867188 1.054688 -16.445312 0.996094 -15.394531 C 0.9375 -13.488281 0.855469 -11.582031 0.769531 -9.675781 C 0.683594 -8.050781 0.625 -6.429688 0.539062 -4.808594 C 0.484375 -3.527344 0.113281 -1.679688 1.136719 -0.683594 C 2.078125 0.226562 3.585938 -0.0273438 4.722656 -0.0585938 Z M 4.722656 -0.0585938 "/></g></g></g><g fill="#27963c" fill-opacity="1"><g transform="translate(247.251625, 253.111771)"><g><path d="M 11.011719 -0.457031 C 12.859375 -1.480469 12.917969 -4.351562 11.183594 -5.519531 C 9.929688 -6.34375 8.621094 -6.0625 7.226562 -6.316406 C 6.175781 -6.515625 6.375 -6.03125 6.203125 -7.226562 C 6.117188 -7.851562 6.289062 -8.59375 6.316406 -9.21875 C 6.402344 -11.75 6.828125 -14.882812 6.003906 -17.355469 C 5.347656 -19.375 3.242188 -20.117188 1.765625 -18.382812 C 0.371094 -16.730469 0.484375 -13.855469 0.484375 -11.863281 C 0.457031 -9.503906 0.339844 -6.941406 0.570312 -4.582031 C 0.824219 -1.964844 2.503906 -0.882812 4.980469 -0.484375 C 6.6875 -0.199219 9.417969 0.425781 11.011719 -0.457031 Z M 11.011719 -0.457031 "/></g></g></g><g fill="#27963c" fill-opacity="1"><g transform="translate(261.789082, 253.111771)"><g><path d="M 11.011719 -0.457031 C 12.859375 -1.480469 12.917969 -4.351562 11.183594 -5.519531 C 9.929688 -6.34375 8.621094 -6.0625 7.226562 -6.316406 C 6.175781 -6.515625 6.375 -6.03125 6.203125 -7.226562 C 6.117188 -7.851562 6.289062 -8.59375 6.316406 -9.21875 C 6.402344 -11.75 6.828125 -14.882812 6.003906 -17.355469 C 5.347656 -19.375 3.242188 -20.117188 1.765625 -18.382812 C 0.371094 -16.730469 0.484375 -13.855469 0.484375 -11.863281 C 0.457031 -9.503906 0.339844 -6.941406 0.570312 -4.582031 C 0.824219 -1.964844 2.503906 -0.882812 4.980469 -0.484375 C 6.6875 -0.199219 9.417969 0.425781 11.011719 -0.457031 Z M 11.011719 -0.457031 "/></g></g></g><g fill="#27963c" fill-opacity="1"><g transform="translate(276.326538, 253.111771)"><g><path d="M 1.421875 -12.320312 C 2.277344 -12.519531 3.1875 -13.515625 3.671875 -14.226562 C 4.152344 -14.9375 4.382812 -16.757812 2.988281 -16.644531 C 1.707031 -16.53125 1.167969 -15.308594 0.683594 -14.167969 C 0.339844 -13.375 0.171875 -12.035156 1.421875 -12.320312 Z M 1.421875 -12.320312 "/></g></g></g><g fill="#27963c" fill-opacity="1"><g transform="translate(282.471882, 253.111771)"><g><path d="M 4.75 -0.171875 C 7.683594 0.285156 11.324219 0.0273438 12.632812 -3.101562 C 13.230469 -4.550781 13.175781 -6.316406 12.519531 -7.710938 C 11.75 -9.390625 10.242188 -10.042969 8.933594 -11.183594 C 5.433594 -14.140625 9.105469 -16.957031 12.179688 -17.925781 C 13.914062 -18.496094 13.316406 -20.34375 12.148438 -21.085938 C 10.753906 -21.964844 8.765625 -21.796875 7.253906 -21.339844 C 4.152344 -20.457031 1.792969 -17.925781 1.335938 -14.683594 C 0.882812 -11.410156 2.304688 -9.078125 5.179688 -7.683594 C 6.230469 -7.171875 8.109375 -6.175781 7.199219 -4.695312 C 6.117188 -2.902344 4.011719 -4.667969 2.617188 -4.667969 C 0.96875 -4.695312 -0.257812 -3.359375 0.824219 -1.792969 C 1.621094 -0.65625 3.472656 -0.398438 4.75 -0.171875 Z M 4.75 -0.171875 "/></g></g></g></svg>