<svg xmlns="http://www.w3.org/2000/svg" xmlns:xlink="http://www.w3.org/1999/xlink" width="500" zoomAndPan="magnify" viewBox="0 0 375 374.999991" height="500" preserveAspectRatio="xMidYMid meet" version="1.0"><defs><g/><clipPath id="a8eca63802"><path d="M 153 116.46875 L 222 116.46875 L 222 192.21875 L 153 192.21875 Z M 153 116.46875 " clip-rule="nonzero"/></clipPath><clipPath id="8af1f4612a"><path d="M 221 116.46875 L 293 116.46875 L 293 192.21875 L 221 192.21875 Z M 221 116.46875 " clip-rule="nonzero"/></clipPath><clipPath id="3893156445"><path d="M 82 116.46875 L 154 116.46875 L 154 192.21875 L 82 192.21875 Z M 82 116.46875 " clip-rule="nonzero"/></clipPath></defs><g fill="#000000" fill-opacity="1"><g transform="translate(46.476564, 235.883013)"><g><path d="M 7.484375 0 C 7.117188 0 6.898438 -0.175781 6.828125 -0.53125 L 0.671875 -23.828125 C 0.640625 -23.878906 0.625 -23.941406 0.625 -24.015625 C 0.625 -24.335938 0.8125 -24.5 1.1875 -24.5 L 5.1875 -24.5 C 5.53125 -24.5 5.738281 -24.320312 5.8125 -23.96875 L 9.09375 -10.015625 C 9.125 -9.921875 9.171875 -9.875 9.234375 -9.875 C 9.304688 -9.875 9.351562 -9.921875 9.375 -10.015625 L 12.53125 -23.96875 C 12.601562 -24.320312 12.8125 -24.5 13.15625 -24.5 L 17.109375 -24.5 C 17.484375 -24.5 17.707031 -24.320312 17.78125 -23.96875 L 21.203125 -10.015625 C 21.234375 -9.921875 21.273438 -9.875 21.328125 -9.875 C 21.390625 -9.875 21.429688 -9.921875 21.453125 -10.015625 L 24.609375 -23.96875 C 24.671875 -24.320312 24.878906 -24.5 25.234375 -24.5 L 29.046875 -24.5 C 29.253906 -24.5 29.398438 -24.429688 29.484375 -24.296875 C 29.566406 -24.171875 29.585938 -24.015625 29.546875 -23.828125 L 23.90625 -0.53125 C 23.832031 -0.175781 23.609375 0 23.234375 0 L 19.390625 0 C 19.015625 0 18.789062 -0.175781 18.71875 -0.53125 L 15.21875 -15.40625 C 15.195312 -15.5 15.148438 -15.546875 15.078125 -15.546875 C 15.015625 -15.546875 14.96875 -15.5 14.9375 -15.40625 L 11.6875 -0.53125 C 11.613281 -0.175781 11.40625 0 11.0625 0 Z M 7.484375 0 "/></g></g></g><g fill="#000000" fill-opacity="1"><g transform="translate(76.674739, 235.883013)"><g><path d="M 15.15625 -23.90625 C 15.15625 -24.300781 15.351562 -24.5 15.75 -24.5 L 19.5 -24.5 C 19.894531 -24.5 20.09375 -24.300781 20.09375 -23.90625 L 20.09375 -0.59375 C 20.09375 -0.195312 19.894531 0 19.5 0 L 15.75 0 C 15.351562 0 15.15625 -0.195312 15.15625 -0.59375 L 15.15625 -10.046875 C 15.15625 -10.179688 15.082031 -10.25 14.9375 -10.25 L 7.28125 -10.25 C 7.132812 -10.25 7.0625 -10.179688 7.0625 -10.046875 L 7.0625 -0.59375 C 7.0625 -0.195312 6.863281 0 6.46875 0 L 2.734375 0 C 2.335938 0 2.140625 -0.195312 2.140625 -0.59375 L 2.140625 -23.90625 C 2.140625 -24.300781 2.335938 -24.5 2.734375 -24.5 L 6.46875 -24.5 C 6.863281 -24.5 7.0625 -24.300781 7.0625 -23.90625 L 7.0625 -14.703125 C 7.0625 -14.554688 7.132812 -14.484375 7.28125 -14.484375 L 14.9375 -14.484375 C 15.082031 -14.484375 15.15625 -14.554688 15.15625 -14.703125 Z M 15.15625 -23.90625 "/></g></g></g><g fill="#000000" fill-opacity="1"><g transform="translate(98.649774, 235.883013)"><g><path d="M 17.890625 0 C 17.554688 0 17.332031 -0.160156 17.21875 -0.484375 L 16.234375 -3.75 C 16.210938 -3.863281 16.144531 -3.921875 16.03125 -3.921875 L 7.453125 -3.921875 C 7.335938 -3.921875 7.269531 -3.863281 7.25 -3.75 L 6.265625 -0.484375 C 6.148438 -0.160156 5.925781 0 5.59375 0 L 1.546875 0 C 1.328125 0 1.171875 -0.0625 1.078125 -0.1875 C 0.984375 -0.320312 0.972656 -0.484375 1.046875 -0.671875 L 8.5 -24.015625 C 8.625 -24.335938 8.847656 -24.5 9.171875 -24.5 L 14.3125 -24.5 C 14.644531 -24.5 14.867188 -24.335938 14.984375 -24.015625 L 22.4375 -0.671875 C 22.457031 -0.617188 22.46875 -0.546875 22.46875 -0.453125 C 22.46875 -0.316406 22.421875 -0.207031 22.328125 -0.125 C 22.234375 -0.0390625 22.101562 0 21.9375 0 Z M 8.46875 -7.984375 C 8.445312 -7.816406 8.503906 -7.734375 8.640625 -7.734375 L 14.84375 -7.734375 C 14.976562 -7.734375 15.035156 -7.816406 15.015625 -7.984375 L 11.859375 -18.65625 C 11.835938 -18.75 11.796875 -18.796875 11.734375 -18.796875 C 11.679688 -18.796875 11.628906 -18.75 11.578125 -18.65625 Z M 8.46875 -7.984375 "/></g></g></g><g fill="#000000" fill-opacity="1"><g transform="translate(122.129467, 235.883013)"><g><path d="M 18.859375 -24.5 C 19.253906 -24.5 19.453125 -24.300781 19.453125 -23.90625 L 19.453125 -20.828125 C 19.453125 -20.429688 19.253906 -20.234375 18.859375 -20.234375 L 12.8125 -20.234375 C 12.664062 -20.234375 12.59375 -20.160156 12.59375 -20.015625 L 12.59375 -0.59375 C 12.59375 -0.195312 12.394531 0 12 0 L 8.265625 0 C 7.867188 0 7.671875 -0.195312 7.671875 -0.59375 L 7.671875 -20.015625 C 7.671875 -20.160156 7.597656 -20.234375 7.453125 -20.234375 L 1.578125 -20.234375 C 1.179688 -20.234375 0.984375 -20.429688 0.984375 -20.828125 L 0.984375 -23.90625 C 0.984375 -24.300781 1.179688 -24.5 1.578125 -24.5 Z M 18.859375 -24.5 "/></g></g></g><g fill="#000000" fill-opacity="1"><g transform="translate(142.599845, 235.883013)"><g/></g></g><g fill="#000000" fill-opacity="1"><g transform="translate(149.598261, 235.883013)"><g><path d="M 18.859375 -24.5 C 19.253906 -24.5 19.453125 -24.300781 19.453125 -23.90625 L 19.453125 -20.828125 C 19.453125 -20.429688 19.253906 -20.234375 18.859375 -20.234375 L 12.8125 -20.234375 C 12.664062 -20.234375 12.59375 -20.160156 12.59375 -20.015625 L 12.59375 -0.59375 C 12.59375 -0.195312 12.394531 0 12 0 L 8.265625 0 C 7.867188 0 7.671875 -0.195312 7.671875 -0.59375 L 7.671875 -20.015625 C 7.671875 -20.160156 7.597656 -20.234375 7.453125 -20.234375 L 1.578125 -20.234375 C 1.179688 -20.234375 0.984375 -20.429688 0.984375 -20.828125 L 0.984375 -23.90625 C 0.984375 -24.300781 1.179688 -24.5 1.578125 -24.5 Z M 18.859375 -24.5 "/></g></g></g><g fill="#000000" fill-opacity="1"><g transform="translate(170.068639, 235.883013)"><g><path d="M 15.15625 -23.90625 C 15.15625 -24.300781 15.351562 -24.5 15.75 -24.5 L 19.5 -24.5 C 19.894531 -24.5 20.09375 -24.300781 20.09375 -23.90625 L 20.09375 -0.59375 C 20.09375 -0.195312 19.894531 0 19.5 0 L 15.75 0 C 15.351562 0 15.15625 -0.195312 15.15625 -0.59375 L 15.15625 -10.046875 C 15.15625 -10.179688 15.082031 -10.25 14.9375 -10.25 L 7.28125 -10.25 C 7.132812 -10.25 7.0625 -10.179688 7.0625 -10.046875 L 7.0625 -0.59375 C 7.0625 -0.195312 6.863281 0 6.46875 0 L 2.734375 0 C 2.335938 0 2.140625 -0.195312 2.140625 -0.59375 L 2.140625 -23.90625 C 2.140625 -24.300781 2.335938 -24.5 2.734375 -24.5 L 6.46875 -24.5 C 6.863281 -24.5 7.0625 -24.300781 7.0625 -23.90625 L 7.0625 -14.703125 C 7.0625 -14.554688 7.132812 -14.484375 7.28125 -14.484375 L 14.9375 -14.484375 C 15.082031 -14.484375 15.15625 -14.554688 15.15625 -14.703125 Z M 15.15625 -23.90625 "/></g></g></g><g fill="#000000" fill-opacity="1"><g transform="translate(192.043675, 235.883013)"><g><path d="M 19.140625 -20.859375 C 19.140625 -20.460938 18.941406 -20.265625 18.546875 -20.265625 L 7.28125 -20.265625 C 7.132812 -20.265625 7.0625 -20.195312 7.0625 -20.0625 L 7.0625 -14.703125 C 7.0625 -14.554688 7.132812 -14.484375 7.28125 -14.484375 L 14.59375 -14.484375 C 14.988281 -14.484375 15.1875 -14.285156 15.1875 -13.890625 L 15.1875 -10.84375 C 15.1875 -10.445312 14.988281 -10.25 14.59375 -10.25 L 7.28125 -10.25 C 7.132812 -10.25 7.0625 -10.179688 7.0625 -10.046875 L 7.0625 -4.4375 C 7.0625 -4.300781 7.132812 -4.234375 7.28125 -4.234375 L 18.546875 -4.234375 C 18.941406 -4.234375 19.140625 -4.035156 19.140625 -3.640625 L 19.140625 -0.59375 C 19.140625 -0.195312 18.941406 0 18.546875 0 L 2.734375 0 C 2.335938 0 2.140625 -0.195312 2.140625 -0.59375 L 2.140625 -23.90625 C 2.140625 -24.300781 2.335938 -24.5 2.734375 -24.5 L 18.546875 -24.5 C 18.941406 -24.5 19.140625 -24.300781 19.140625 -23.90625 Z M 19.140625 -20.859375 "/></g></g></g><g fill="#000000" fill-opacity="1"><g transform="translate(212.479056, 235.883013)"><g/></g></g><g fill="#000000" fill-opacity="1"><g transform="translate(219.477472, 235.883013)"><g><path d="M 15.15625 -23.90625 C 15.15625 -24.300781 15.351562 -24.5 15.75 -24.5 L 19.5 -24.5 C 19.894531 -24.5 20.09375 -24.300781 20.09375 -23.90625 L 20.09375 -0.59375 C 20.09375 -0.195312 19.894531 0 19.5 0 L 15.75 0 C 15.351562 0 15.15625 -0.195312 15.15625 -0.59375 L 15.15625 -10.046875 C 15.15625 -10.179688 15.082031 -10.25 14.9375 -10.25 L 7.28125 -10.25 C 7.132812 -10.25 7.0625 -10.179688 7.0625 -10.046875 L 7.0625 -0.59375 C 7.0625 -0.195312 6.863281 0 6.46875 0 L 2.734375 0 C 2.335938 0 2.140625 -0.195312 2.140625 -0.59375 L 2.140625 -23.90625 C 2.140625 -24.300781 2.335938 -24.5 2.734375 -24.5 L 6.46875 -24.5 C 6.863281 -24.5 7.0625 -24.300781 7.0625 -23.90625 L 7.0625 -14.703125 C 7.0625 -14.554688 7.132812 -14.484375 7.28125 -14.484375 L 14.9375 -14.484375 C 15.082031 -14.484375 15.15625 -14.554688 15.15625 -14.703125 Z M 15.15625 -23.90625 "/></g></g></g><g fill="#000000" fill-opacity="1"><g transform="translate(241.452519, 235.883013)"><g><path d="M 19.140625 -20.859375 C 19.140625 -20.460938 18.941406 -20.265625 18.546875 -20.265625 L 7.28125 -20.265625 C 7.132812 -20.265625 7.0625 -20.195312 7.0625 -20.0625 L 7.0625 -14.703125 C 7.0625 -14.554688 7.132812 -14.484375 7.28125 -14.484375 L 14.59375 -14.484375 C 14.988281 -14.484375 15.1875 -14.285156 15.1875 -13.890625 L 15.1875 -10.84375 C 15.1875 -10.445312 14.988281 -10.25 14.59375 -10.25 L 7.28125 -10.25 C 7.132812 -10.25 7.0625 -10.179688 7.0625 -10.046875 L 7.0625 -4.4375 C 7.0625 -4.300781 7.132812 -4.234375 7.28125 -4.234375 L 18.546875 -4.234375 C 18.941406 -4.234375 19.140625 -4.035156 19.140625 -3.640625 L 19.140625 -0.59375 C 19.140625 -0.195312 18.941406 0 18.546875 0 L 2.734375 0 C 2.335938 0 2.140625 -0.195312 2.140625 -0.59375 L 2.140625 -23.90625 C 2.140625 -24.300781 2.335938 -24.5 2.734375 -24.5 L 18.546875 -24.5 C 18.941406 -24.5 19.140625 -24.300781 19.140625 -23.90625 Z M 19.140625 -20.859375 "/></g></g></g><g fill="#000000" fill-opacity="1"><g transform="translate(261.887912, 235.883013)"><g><path d="M 2.734375 0 C 2.335938 0 2.140625 -0.195312 2.140625 -0.59375 L 2.140625 -23.90625 C 2.140625 -24.300781 2.335938 -24.5 2.734375 -24.5 L 6.46875 -24.5 C 6.863281 -24.5 7.0625 -24.300781 7.0625 -23.90625 L 7.0625 -4.4375 C 7.0625 -4.300781 7.132812 -4.234375 7.28125 -4.234375 L 18.515625 -4.234375 C 18.910156 -4.234375 19.109375 -4.035156 19.109375 -3.640625 L 19.109375 -0.59375 C 19.109375 -0.195312 18.910156 0 18.515625 0 Z M 2.734375 0 "/></g></g></g><g fill="#000000" fill-opacity="1"><g transform="translate(281.903398, 235.883013)"><g><path d="M 2.734375 0 C 2.335938 0 2.140625 -0.195312 2.140625 -0.59375 L 2.140625 -23.90625 C 2.140625 -24.300781 2.335938 -24.5 2.734375 -24.5 L 6.46875 -24.5 C 6.863281 -24.5 7.0625 -24.300781 7.0625 -23.90625 L 7.0625 -4.4375 C 7.0625 -4.300781 7.132812 -4.234375 7.28125 -4.234375 L 18.515625 -4.234375 C 18.910156 -4.234375 19.109375 -4.035156 19.109375 -3.640625 L 19.109375 -0.59375 C 19.109375 -0.195312 18.910156 0 18.515625 0 Z M 2.734375 0 "/></g></g></g><g fill="#000000" fill-opacity="1"><g transform="translate(301.918884, 235.883013)"><g><path d="M 1.578125 -16.5625 C 1.222656 -16.5625 1.023438 -16.742188 0.984375 -17.109375 L 0.53125 -23.828125 L 0.53125 -23.90625 C 0.53125 -24.28125 0.726562 -24.46875 1.125 -24.46875 L 4.859375 -24.46875 C 5.304688 -24.46875 5.503906 -24.253906 5.453125 -23.828125 L 5 -17.109375 C 4.957031 -16.742188 4.757812 -16.5625 4.40625 -16.5625 Z M 1.578125 -16.5625 "/></g></g></g><g fill="#000000" fill-opacity="1"><g transform="translate(307.797554, 235.883013)"><g><path d="M 10.4375 0.28125 C 8.613281 0.28125 7.007812 -0.0195312 5.625 -0.625 C 4.25 -1.238281 3.1875 -2.09375 2.4375 -3.1875 C 1.695312 -4.28125 1.328125 -5.5625 1.328125 -7.03125 L 1.328125 -7.625 C 1.328125 -8.019531 1.523438 -8.21875 1.921875 -8.21875 L 5.59375 -8.21875 C 5.988281 -8.21875 6.1875 -8.066406 6.1875 -7.765625 L 6.1875 -7.28125 C 6.1875 -6.34375 6.613281 -5.550781 7.46875 -4.90625 C 8.320312 -4.269531 9.4375 -3.953125 10.8125 -3.953125 C 12.050781 -3.953125 12.96875 -4.210938 13.5625 -4.734375 C 14.15625 -5.265625 14.453125 -5.914062 14.453125 -6.6875 C 14.453125 -7.25 14.265625 -7.722656 13.890625 -8.109375 C 13.515625 -8.492188 13.007812 -8.832031 12.375 -9.125 C 11.75 -9.414062 10.738281 -9.816406 9.34375 -10.328125 C 7.757812 -10.859375 6.429688 -11.40625 5.359375 -11.96875 C 4.285156 -12.53125 3.375 -13.296875 2.625 -14.265625 C 1.875 -15.234375 1.5 -16.425781 1.5 -17.84375 C 1.5 -19.25 1.859375 -20.472656 2.578125 -21.515625 C 3.304688 -22.566406 4.316406 -23.375 5.609375 -23.9375 C 6.910156 -24.5 8.390625 -24.78125 10.046875 -24.78125 C 11.816406 -24.78125 13.398438 -24.460938 14.796875 -23.828125 C 16.203125 -23.203125 17.296875 -22.320312 18.078125 -21.1875 C 18.859375 -20.0625 19.25 -18.75 19.25 -17.25 L 19.25 -16.90625 C 19.25 -16.507812 19.050781 -16.3125 18.65625 -16.3125 L 14.984375 -16.3125 C 14.585938 -16.3125 14.390625 -16.425781 14.390625 -16.65625 L 14.390625 -17.015625 C 14.390625 -17.992188 13.984375 -18.828125 13.171875 -19.515625 C 12.367188 -20.203125 11.269531 -20.546875 9.875 -20.546875 C 8.75 -20.546875 7.882812 -20.3125 7.28125 -19.84375 C 6.675781 -19.375 6.375 -18.734375 6.375 -17.921875 C 6.375 -17.335938 6.546875 -16.847656 6.890625 -16.453125 C 7.242188 -16.054688 7.773438 -15.691406 8.484375 -15.359375 C 9.203125 -15.035156 10.304688 -14.617188 11.796875 -14.109375 C 13.429688 -13.492188 14.722656 -12.957031 15.671875 -12.5 C 16.628906 -12.050781 17.488281 -11.359375 18.25 -10.421875 C 19.007812 -9.492188 19.390625 -8.296875 19.390625 -6.828125 C 19.390625 -5.398438 19.019531 -4.148438 18.28125 -3.078125 C 17.550781 -2.003906 16.515625 -1.175781 15.171875 -0.59375 C 13.828125 -0.0078125 12.25 0.28125 10.4375 0.28125 Z M 10.4375 0.28125 "/></g></g></g><g fill="#b92f28" fill-opacity="1"><g transform="translate(142.860149, 255.333031)"><g><path d="M 7.65625 -7.28125 L 3.21875 -7.28125 L 3.21875 -5.171875 L 7.3125 -5.171875 L 7.3125 -3.359375 L 3.21875 -3.359375 L 3.21875 0 L 0.90625 0 L 0.90625 -9.09375 L 7.65625 -9.09375 Z M 7.65625 -7.28125 "/></g></g></g><g fill="#b92f28" fill-opacity="1"><g transform="translate(151.359737, 255.333031)"><g><path d="M 5.21875 -9.171875 C 6.632812 -9.171875 7.8125 -8.726562 8.75 -7.84375 C 9.6875 -6.96875 10.15625 -5.875 10.15625 -4.5625 C 10.15625 -3.238281 9.679688 -2.128906 8.734375 -1.234375 C 7.796875 -0.335938 6.625 0.109375 5.21875 0.109375 C 3.820312 0.109375 2.65625 -0.332031 1.71875 -1.21875 C 0.78125 -2.113281 0.3125 -3.226562 0.3125 -4.5625 C 0.3125 -5.882812 0.78125 -6.984375 1.71875 -7.859375 C 2.65625 -8.734375 3.820312 -9.171875 5.21875 -9.171875 Z M 5.25 -7.234375 C 4.539062 -7.234375 3.929688 -6.972656 3.421875 -6.453125 C 2.921875 -5.941406 2.671875 -5.304688 2.671875 -4.546875 C 2.671875 -3.785156 2.925781 -3.140625 3.4375 -2.609375 C 3.945312 -2.085938 4.550781 -1.828125 5.25 -1.828125 C 5.957031 -1.828125 6.554688 -2.085938 7.046875 -2.609375 C 7.535156 -3.140625 7.78125 -3.785156 7.78125 -4.546875 C 7.78125 -5.304688 7.535156 -5.941406 7.046875 -6.453125 C 6.554688 -6.972656 5.957031 -7.234375 5.25 -7.234375 Z M 5.25 -7.234375 "/></g></g></g><g fill="#b92f28" fill-opacity="1"><g transform="translate(162.471531, 255.333031)"><g><path d="M 6.390625 0 L 5.046875 -2.5625 L 3.21875 -2.5625 L 3.21875 0 L 0.90625 0 L 0.90625 -9.09375 L 4.984375 -9.09375 C 6.179688 -9.09375 7.109375 -8.816406 7.765625 -8.265625 C 8.429688 -7.722656 8.765625 -6.941406 8.765625 -5.921875 C 8.765625 -4.523438 8.210938 -3.550781 7.109375 -3 L 9.015625 0 Z M 3.21875 -4.375 L 4.984375 -4.375 C 5.484375 -4.375 5.867188 -4.5 6.140625 -4.75 C 6.421875 -5.007812 6.5625 -5.375 6.5625 -5.84375 C 6.5625 -6.3125 6.421875 -6.664062 6.140625 -6.90625 C 5.867188 -7.15625 5.484375 -7.28125 4.984375 -7.28125 L 3.21875 -7.28125 Z M 3.21875 -4.375 "/></g></g></g><g fill="#b92f28" fill-opacity="1"><g transform="translate(172.53064, 255.333031)"><g/></g></g><g fill="#b92f28" fill-opacity="1"><g transform="translate(176.195707, 255.333031)"><g><path d="M 0.90625 -9.09375 L 4.828125 -9.09375 C 6.253906 -9.09375 7.414062 -8.671875 8.3125 -7.828125 C 9.207031 -6.992188 9.65625 -5.898438 9.65625 -4.546875 C 9.65625 -3.203125 9.195312 -2.109375 8.28125 -1.265625 C 7.375 -0.421875 6.191406 0 4.734375 0 L 0.90625 0 Z M 3.21875 -7.25 L 3.21875 -1.84375 L 4.875 -1.84375 C 5.582031 -1.84375 6.164062 -2.09375 6.625 -2.59375 C 7.082031 -3.09375 7.3125 -3.738281 7.3125 -4.53125 C 7.3125 -5.332031 7.070312 -5.984375 6.59375 -6.484375 C 6.113281 -6.992188 5.503906 -7.25 4.765625 -7.25 Z M 3.21875 -7.25 "/></g></g></g><g fill="#b92f28" fill-opacity="1"><g transform="translate(186.813644, 255.333031)"><g><path d="M 3.21875 0 L 0.90625 0 L 0.90625 -9.09375 L 3.21875 -9.09375 Z M 3.21875 0 "/></g></g></g><g fill="#b92f28" fill-opacity="1"><g transform="translate(191.596373, 255.333031)"><g><path d="M 9.3125 0 L 7.265625 0 L 3.078125 -5.609375 L 3.078125 0 L 0.90625 0 L 0.90625 -9.09375 L 2.953125 -9.09375 L 7.15625 -3.484375 L 7.15625 -9.09375 L 9.3125 -9.09375 Z M 9.3125 0 "/></g></g></g><g fill="#b92f28" fill-opacity="1"><g transform="translate(202.461238, 255.333031)"><g><path d="M 9.3125 0 L 7.265625 0 L 3.078125 -5.609375 L 3.078125 0 L 0.90625 0 L 0.90625 -9.09375 L 2.953125 -9.09375 L 7.15625 -3.484375 L 7.15625 -9.09375 L 9.3125 -9.09375 Z M 9.3125 0 "/></g></g></g><g fill="#b92f28" fill-opacity="1"><g transform="translate(213.326104, 255.333031)"><g><path d="M 8.03125 -7.28125 L 3.21875 -7.28125 L 3.21875 -5.46875 L 7.5625 -5.46875 L 7.5625 -3.65625 L 3.21875 -3.65625 L 3.21875 -1.8125 L 8.171875 -1.8125 L 8.171875 0 L 0.90625 0 L 0.90625 -9.09375 L 8.03125 -9.09375 Z M 8.03125 -7.28125 "/></g></g></g><g fill="#b92f28" fill-opacity="1"><g transform="translate(222.735418, 255.333031)"><g><path d="M 6.390625 0 L 5.046875 -2.5625 L 3.21875 -2.5625 L 3.21875 0 L 0.90625 0 L 0.90625 -9.09375 L 4.984375 -9.09375 C 6.179688 -9.09375 7.109375 -8.816406 7.765625 -8.265625 C 8.429688 -7.722656 8.765625 -6.941406 8.765625 -5.921875 C 8.765625 -4.523438 8.210938 -3.550781 7.109375 -3 L 9.015625 0 Z M 3.21875 -4.375 L 4.984375 -4.375 C 5.484375 -4.375 5.867188 -4.5 6.140625 -4.75 C 6.421875 -5.007812 6.5625 -5.375 6.5625 -5.84375 C 6.5625 -6.3125 6.421875 -6.664062 6.140625 -6.90625 C 5.867188 -7.15625 5.484375 -7.28125 4.984375 -7.28125 L 3.21875 -7.28125 Z M 3.21875 -4.375 "/></g></g></g><g clip-path="url(#a8eca63802)"><path fill="#48c0a8" d="M 185.078125 192.207031 C 185.046875 186.71875 185.015625 181.039062 184.992188 180.421875 C 184.957031 179.453125 184.886719 178.585938 184.839844 177.835938 C 177.140625 176.195312 171.316406 168.453125 171.316406 159.140625 C 171.316406 148.644531 178.734375 128.046875 187.886719 128.046875 C 188.65625 128.046875 189.410156 128.203125 190.148438 128.472656 L 190.167969 128.480469 C 190.417969 128.574219 190.667969 128.679688 190.910156 128.800781 L 190.953125 128.820312 C 191.191406 128.941406 191.433594 129.074219 191.671875 129.222656 L 191.722656 129.253906 C 191.960938 129.398438 192.191406 129.554688 192.421875 129.726562 L 192.476562 129.765625 C 192.707031 129.941406 192.9375 130.121094 193.164062 130.316406 L 193.214844 130.359375 C 193.441406 130.558594 193.667969 130.765625 193.890625 130.984375 L 193.933594 131.027344 C 194.15625 131.246094 194.382812 131.480469 194.601562 131.726562 L 194.625 131.753906 C 196.933594 134.304688 198.957031 137.925781 200.5625 141.863281 L 200.589844 141.925781 C 200.726562 142.261719 200.859375 142.597656 200.988281 142.933594 C 201.015625 143.011719 201.046875 143.089844 201.074219 143.164062 C 201.191406 143.46875 201.304688 143.777344 201.414062 144.082031 C 201.453125 144.195312 201.496094 144.304688 201.535156 144.421875 C 201.636719 144.703125 201.730469 144.988281 201.828125 145.273438 C 201.871094 145.410156 201.917969 145.546875 201.960938 145.683594 C 202.050781 145.949219 202.132812 146.214844 202.214844 146.480469 C 202.265625 146.640625 202.316406 146.796875 202.363281 146.953125 C 202.4375 147.207031 202.511719 147.457031 202.582031 147.707031 C 202.632812 147.878906 202.683594 148.050781 202.730469 148.226562 C 202.796875 148.460938 202.859375 148.699219 202.921875 148.933594 C 202.96875 149.121094 203.019531 149.304688 203.066406 149.492188 C 203.121094 149.714844 203.179688 149.9375 203.230469 150.160156 C 203.277344 150.355469 203.324219 150.550781 203.367188 150.742188 C 203.414062 150.953125 203.464844 151.167969 203.511719 151.382812 C 203.554688 151.582031 203.59375 151.78125 203.632812 151.976562 C 203.675781 152.179688 203.71875 152.382812 203.753906 152.582031 C 203.792969 152.789062 203.828125 152.992188 203.867188 153.191406 C 203.898438 153.382812 203.933594 153.574219 203.964844 153.765625 C 204 153.972656 204.03125 154.175781 204.0625 154.382812 C 204.089844 154.558594 204.117188 154.742188 204.140625 154.917969 C 204.171875 155.128906 204.195312 155.335938 204.21875 155.542969 C 204.238281 155.707031 204.261719 155.875 204.28125 156.039062 C 204.304688 156.253906 204.320312 156.46875 204.339844 156.679688 C 204.355469 156.828125 204.367188 156.972656 204.378906 157.117188 C 204.398438 157.347656 204.40625 157.574219 204.421875 157.800781 C 204.425781 157.917969 204.433594 158.039062 204.441406 158.15625 C 204.453125 158.492188 204.460938 158.820312 204.460938 159.140625 C 204.460938 159.675781 204.4375 160.207031 204.398438 160.730469 C 204.394531 160.800781 204.390625 160.871094 204.386719 160.9375 C 204.34375 161.4375 204.285156 161.929688 204.210938 162.417969 C 204.199219 162.5 204.1875 162.582031 204.171875 162.664062 C 204.09375 163.152344 204 163.632812 203.886719 164.105469 C 203.871094 164.167969 203.855469 164.230469 203.84375 164.292969 C 203.722656 164.789062 203.585938 165.277344 203.429688 165.753906 L 203.429688 165.765625 C 203.261719 166.273438 203.078125 166.773438 202.878906 167.261719 L 202.875 167.273438 C 202.675781 167.753906 202.457031 168.21875 202.226562 168.675781 L 202.199219 168.734375 C 201.964844 169.195312 201.710938 169.640625 201.449219 170.074219 L 201.441406 170.078125 C 199 174.058594 195.265625 176.914062 190.941406 177.835938 C 190.890625 178.585938 190.820312 179.453125 190.785156 180.421875 C 190.761719 181.039062 190.730469 186.71875 190.699219 192.207031 C 204.125 191.21875 215.605469 183.214844 221.488281 171.839844 C 218.792969 166.625 217.269531 160.707031 217.269531 154.429688 C 217.269531 148.152344 218.792969 142.230469 221.488281 137.015625 C 215.195312 124.847656 202.511719 116.535156 187.890625 116.535156 C 173 116.535156 160.121094 125.15625 153.953125 137.683594 C 156.425781 142.722656 157.8125 148.390625 157.8125 154.386719 C 157.8125 160.394531 156.417969 166.078125 153.929688 171.125 C 159.703125 182.878906 171.378906 191.195312 185.078125 192.207031 " fill-opacity="1" fill-rule="nonzero"/></g><g clip-path="url(#8af1f4612a)"><path fill="#eda332" d="M 252.28125 192.207031 C 252.25 186.433594 252.214844 180.089844 252.191406 179.4375 C 252.152344 178.359375 252.070312 177.410156 252.023438 176.609375 C 246.589844 174.621094 242.550781 167.5 242.472656 158.960938 L 242.488281 158.960938 C 242.484375 158.824219 242.476562 158.6875 242.484375 158.542969 C 243.253906 149.25 244.035156 139.945312 244.808594 130.65625 C 244.953125 128.867188 245.445312 127.441406 245.898438 127.441406 C 245.898438 127.441406 245.898438 127.441406 245.902344 127.441406 C 246.359375 127.453125 246.78125 128.90625 246.851562 130.703125 C 247.210938 140.015625 247.566406 149.34375 247.925781 158.664062 C 247.929688 158.765625 247.914062 158.863281 247.910156 158.960938 L 249.082031 158.960938 C 249.078125 158.847656 249.0625 158.738281 249.070312 158.621094 C 249.597656 149.304688 250.125 139.988281 250.652344 130.679688 C 250.75 128.886719 251.210938 127.441406 251.664062 127.4375 C 252.117188 127.4375 252.578125 128.878906 252.691406 130.671875 C 253.300781 139.972656 253.90625 149.285156 254.519531 158.597656 C 254.527344 158.722656 254.511719 158.84375 254.507812 158.960938 L 255.675781 158.960938 C 255.671875 158.851562 255.65625 158.746094 255.660156 158.636719 C 256.144531 149.3125 256.628906 139.992188 257.117188 130.683594 C 257.207031 128.890625 257.65625 127.445312 258.109375 127.4375 C 258.109375 127.4375 258.113281 127.4375 258.113281 127.4375 C 258.566406 127.4375 259.03125 128.878906 259.15625 130.667969 C 259.808594 139.964844 260.457031 149.277344 261.109375 158.585938 C 261.117188 158.714844 261.105469 158.835938 261.101562 158.960938 L 262.269531 158.960938 C 262.265625 158.863281 262.25 158.765625 262.253906 158.664062 C 262.589844 150.019531 262.917969 141.371094 263.25 132.734375 L 263.25 132.726562 C 263.277344 132.054688 263.300781 131.375 263.332031 130.703125 C 263.402344 128.90625 263.824219 127.453125 264.28125 127.441406 C 264.285156 127.441406 264.285156 127.441406 264.285156 127.441406 C 264.738281 127.441406 265.226562 128.867188 265.371094 130.65625 C 266.144531 139.945312 266.929688 149.25 267.695312 158.542969 C 267.707031 158.6875 267.699219 158.824219 267.695312 158.960938 L 267.710938 158.960938 C 267.703125 159.550781 267.675781 160.128906 267.636719 160.703125 C 267.621094 160.890625 267.597656 161.074219 267.582031 161.261719 C 267.542969 161.640625 267.503906 162.019531 267.453125 162.390625 C 267.421875 162.613281 267.386719 162.828125 267.351562 163.042969 C 267.296875 163.371094 267.238281 163.699219 267.171875 164.023438 C 267.121094 164.25 267.074219 164.480469 267.019531 164.707031 C 266.949219 165 266.875 165.292969 266.792969 165.582031 C 266.730469 165.816406 266.667969 166.050781 266.597656 166.28125 C 266.515625 166.542969 266.425781 166.796875 266.335938 167.054688 C 266.25 167.292969 266.175781 167.539062 266.082031 167.769531 L 266.058594 167.832031 C 265.765625 168.585938 265.433594 169.292969 265.074219 169.976562 C 265.015625 170.078125 264.964844 170.1875 264.910156 170.289062 C 264.742188 170.59375 264.5625 170.886719 264.378906 171.175781 C 264.324219 171.269531 264.265625 171.359375 264.207031 171.453125 C 264.015625 171.75 263.8125 172.035156 263.609375 172.3125 C 263.5625 172.371094 263.515625 172.433594 263.46875 172.492188 C 263.238281 172.789062 263.007812 173.078125 262.765625 173.347656 L 262.75 173.367188 C 261.402344 174.875 259.851562 175.988281 258.15625 176.609375 C 258.121094 177.132812 258.078125 177.726562 258.039062 178.371094 C 258.035156 178.457031 258.027344 178.535156 258.023438 178.621094 C 258.007812 178.882812 257.996094 179.15625 257.988281 179.4375 C 257.960938 180.089844 257.925781 186.433594 257.894531 192.207031 C 277.472656 190.769531 292.914062 174.410156 292.914062 154.429688 C 292.914062 133.503906 275.980469 116.535156 255.089844 116.535156 C 240.46875 116.535156 227.785156 124.847656 221.488281 137.015625 C 224.1875 142.230469 225.710938 148.152344 225.710938 154.429688 C 225.710938 160.707031 224.1875 166.625 221.488281 171.839844 C 227.378906 183.214844 238.855469 191.21875 252.28125 192.207031 " fill-opacity="1" fill-rule="nonzero"/></g><path fill="#518847" d="M 221.488281 171.839844 C 224.1875 166.625 225.710938 160.707031 225.710938 154.429688 C 225.710938 148.152344 224.1875 142.230469 221.488281 137.015625 C 218.792969 142.230469 217.269531 148.152344 217.269531 154.429688 C 217.269531 160.707031 218.792969 166.625 221.488281 171.839844 " fill-opacity="1" fill-rule="nonzero"/><g clip-path="url(#3893156445)"><path fill="#b92f28" d="M 118.863281 192.25 C 118.875 190.105469 118.851562 188.101562 118.796875 186.320312 C 118.792969 186.074219 118.785156 185.148438 118.777344 183.867188 L 117.070312 183.867188 C 114.886719 183.867188 113.121094 182.101562 113.121094 179.914062 C 113.121094 179.914062 113.101562 125.347656 119.433594 125.347656 C 120.082031 125.347656 120.695312 125.527344 121.246094 125.824219 L 121.25 125.824219 C 121.6875 126.058594 122.078125 126.371094 122.40625 126.75 L 122.515625 126.886719 C 122.601562 126.992188 122.683594 127.097656 122.757812 127.210938 C 122.855469 127.371094 122.953125 127.535156 123.03125 127.710938 C 123.0625 127.777344 123.082031 127.84375 123.105469 127.914062 C 123.167969 128.066406 123.21875 128.226562 123.257812 128.386719 C 123.273438 128.457031 123.292969 128.527344 123.304688 128.59375 C 123.347656 128.824219 123.378906 129.054688 123.378906 129.300781 C 123.378906 129.300781 123.285156 185.777344 123.273438 186.320312 C 123.226562 188.066406 123.203125 190.03125 123.210938 192.132812 C 136.71875 190.992188 148.207031 182.738281 153.929688 171.125 C 151.457031 166.089844 150.066406 160.421875 150.066406 154.429688 C 150.066406 148.417969 151.464844 142.734375 153.953125 137.683594 C 147.789062 125.132812 134.898438 116.492188 119.992188 116.492188 C 99.101562 116.492188 82.167969 133.460938 82.167969 154.386719 C 82.167969 174.9375 98.5 191.652344 118.863281 192.25 " fill-opacity="1" fill-rule="nonzero"/></g><path fill="#605441" d="M 153.929688 171.125 C 156.417969 166.078125 157.8125 160.394531 157.8125 154.386719 C 157.8125 148.390625 156.425781 142.722656 153.953125 137.683594 C 151.464844 142.734375 150.066406 148.417969 150.066406 154.429688 C 150.066406 160.421875 151.457031 166.089844 153.929688 171.125 " fill-opacity="1" fill-rule="nonzero"/></svg>