<svg xmlns="http://www.w3.org/2000/svg" xmlns:xlink="http://www.w3.org/1999/xlink" width="500" zoomAndPan="magnify" viewBox="0 0 375 374.999991" height="500" preserveAspectRatio="xMidYMid meet" version="1.0"><defs><g/><clipPath id="4789fd4d5d"><path d="M 91.03125 91 L 284 91 L 284 284 L 91.03125 284 Z M 91.03125 91 " clip-rule="nonzero"/></clipPath><clipPath id="9e5a799504"><path d="M 187.5 283.96875 C 161.742188 283.96875 137.492188 273.945312 119.292969 255.707031 C 101.054688 237.507812 91.03125 213.257812 91.03125 187.5 C 91.03125 161.742188 101.054688 137.492188 119.292969 119.292969 C 137.492188 101.054688 161.742188 91.03125 187.5 91.03125 C 213.257812 91.03125 237.507812 101.054688 255.707031 119.292969 C 273.945312 137.53125 283.96875 161.742188 283.96875 187.5 C 283.96875 213.257812 273.945312 237.507812 255.707031 255.707031 C 237.507812 273.945312 213.257812 283.96875 187.5 283.96875 Z M 187.5 96.8125 C 163.285156 96.8125 140.5 106.261719 123.378906 123.378906 C 106.261719 140.5 96.8125 163.285156 96.8125 187.5 C 96.8125 211.714844 106.261719 234.5 123.378906 251.621094 C 140.5 268.738281 163.285156 278.1875 187.5 278.1875 C 211.714844 278.1875 234.5 268.738281 251.621094 251.621094 C 268.738281 234.5 278.1875 211.714844 278.1875 187.5 C 278.1875 163.285156 268.738281 140.5 251.621094 123.378906 C 234.5 106.261719 211.714844 96.8125 187.5 96.8125 Z M 187.5 96.8125 " clip-rule="nonzero"/></clipPath><clipPath id="f79d91f693"><path d="M 223.214844 167.066406 L 247.230469 167.066406 L 247.230469 182.210938 L 223.214844 182.210938 Z M 223.214844 167.066406 " clip-rule="nonzero"/></clipPath><clipPath id="b72303df3c"><path d="M 162 147.347656 L 181 147.347656 L 181 178 L 162 178 Z M 162 147.347656 " clip-rule="nonzero"/></clipPath><clipPath id="614e7be983"><path d="M 165.421875 229.699219 L 210 229.699219 L 210 241.84375 L 165.421875 241.84375 Z M 165.421875 229.699219 " clip-rule="nonzero"/></clipPath></defs><g clip-path="url(#4789fd4d5d)"><g clip-path="url(#9e5a799504)"><path fill="#77972a" d="M 91.03125 91.03125 L 283.816406 91.03125 L 283.816406 283.816406 L 91.03125 283.816406 Z M 91.03125 91.03125 " fill-opacity="1" fill-rule="nonzero"/></g></g><g fill="#77972a" fill-opacity="1"><g transform="translate(119.752822, 181.231716)"><g><path d="M 4.171875 -16.625 L 3.28125 -13.078125 L -6.734375 -12.90625 L 2 -7.984375 L 1.109375 -4.421875 L -13.578125 -3.390625 L -12.65625 -7.078125 L -2 -7.21875 L -11.34375 -12.328125 L -10.484375 -15.71875 L 0.15625 -15.859375 L -9.15625 -20.984375 L -8.28125 -24.515625 Z M 4.171875 -16.625 "/></g></g></g><g fill="#77972a" fill-opacity="1"><g transform="translate(125.588263, 159.959155)"><g><path d="M 7.21875 -12.359375 L 5.421875 -9.296875 L 0.734375 -12.046875 L -2.1875 -7.03125 L 2.5 -4.28125 L 0.703125 -1.21875 L -11.390625 -8.28125 L -9.59375 -11.34375 L -4.609375 -8.4375 L -1.6875 -13.453125 L -6.671875 -16.359375 L -4.875 -19.421875 Z M 7.21875 -12.359375 "/></g></g></g><g fill="#77972a" fill-opacity="1"><g transform="translate(133.991117, 145.793982)"><g><path d="M 5.609375 -9.484375 L 1.34375 -5.078125 L 2.484375 -2.5625 L -0.0625 0.0625 L -5.921875 -14 L -3.375 -16.625 L 10.78125 -11.125 L 8.140625 -8.40625 Z M 2.921875 -10.609375 L -2.171875 -12.78125 L 0.125 -7.71875 Z M 2.921875 -10.609375 "/></g></g></g><g fill="#77972a" fill-opacity="1"><g transform="translate(145.520814, 134.285327)"><g><path d="M 3.953125 -15.953125 L 0.4375 -13.640625 L 6.578125 -4.34375 L 3.59375 -2.375 L -2.546875 -11.671875 L -6.015625 -9.375 L -7.59375 -11.78125 L 2.375 -18.359375 Z M 3.953125 -15.953125 "/></g></g></g><g fill="#77972a" fill-opacity="1"><g transform="translate(157.087158, 127.10155)"><g/></g></g><g fill="#77972a" fill-opacity="1"><g transform="translate(162.515293, 124.372603)"><g><path d="M 8.375 -14.15625 L 4.34375 -12.9375 L 7.546875 -2.265625 L 4.125 -1.234375 L 0.921875 -11.90625 L -3.0625 -10.71875 L -3.890625 -13.46875 L 7.546875 -16.90625 Z M 8.375 -14.15625 "/></g></g></g><g fill="#77972a" fill-opacity="1"><g transform="translate(175.069136, 120.505839)"><g><path d="M 14.28125 -1.03125 L 10.734375 -0.78125 L 10.34375 -6.203125 L 4.546875 -5.78125 L 4.9375 -0.359375 L 1.40625 -0.09375 L 0.40625 -14.0625 L 3.9375 -14.328125 L 4.34375 -8.578125 L 10.140625 -9 L 9.734375 -14.75 L 13.28125 -15 Z M 14.28125 -1.03125 "/></g></g></g><g fill="#77972a" fill-opacity="1"><g transform="translate(191.584795, 119.539255)"><g><path d="M 13.953125 -9.140625 L 6.640625 -10.296875 L 6.203125 -7.546875 L 12.8125 -6.5 L 12.375 -3.75 L 5.765625 -4.796875 L 5.328125 -2 L 12.859375 -0.8125 L 12.421875 1.953125 L 1.390625 0.21875 L 3.5625 -13.609375 L 14.375 -11.90625 Z M 13.953125 -9.140625 "/></g></g></g><g fill="#77972a" fill-opacity="1"><g transform="translate(206.138339, 122.281619)"><g/></g></g><g fill="#77972a" fill-opacity="1"><g transform="translate(211.890872, 123.749419)"><g><path d="M 12.703125 6.609375 L 9.546875 4.96875 L 12.0625 0.140625 L 6.90625 -2.546875 L 4.390625 2.28125 L 1.25 0.65625 L 7.71875 -11.765625 L 10.859375 -10.140625 L 8.1875 -5.015625 L 13.34375 -2.328125 L 16.015625 -7.453125 L 19.171875 -5.8125 Z M 12.703125 6.609375 "/></g></g></g><g fill="#77972a" fill-opacity="1"><g transform="translate(226.46269, 131.582671)"><g><path d="M 16.671875 -0.484375 L 11.046875 -5.296875 L 9.25 -3.171875 L 14.328125 1.171875 L 12.5 3.296875 L 7.421875 -1.046875 L 5.578125 1.09375 L 11.375 6.046875 L 9.5625 8.171875 L 1.0625 0.921875 L 10.171875 -9.71875 L 18.5 -2.609375 Z M 16.671875 -0.484375 "/></g></g></g><g fill="#77972a" fill-opacity="1"><g transform="translate(237.346573, 141.180777)"><g><path d="M 5.40625 2.046875 L 9.078125 6.734375 L 6.734375 8.578125 L 0.875 1.109375 L 11.890625 -7.53125 L 14.078125 -4.75 Z M 5.40625 2.046875 "/></g></g></g><g fill="#77972a" fill-opacity="1"><g transform="translate(244.881042, 150.964261)"><g><path d="M 4.9375 3 L 7.703125 8.265625 L 5.0625 9.65625 L 0.65625 1.25 L 13.0625 -5.234375 L 14.703125 -2.09375 Z M 4.9375 3 "/></g></g></g><g fill="#77972a" fill-opacity="1"><g transform="translate(250.448868, 162.302399)"><g><path d="M 9.328125 0.71875 L 8.46875 -1.71875 L 13.609375 -3.53125 L 14.46875 -1.09375 Z M 9.328125 0.71875 "/></g></g></g><g fill="#77972a" fill-opacity="1"><g transform="translate(252.765022, 168.258506)"><g><path d="M 15.171875 4.015625 C 15.566406 6.078125 15.398438 7.984375 14.671875 9.734375 L 11.6875 8.9375 C 11.96875 8.132812 12.164062 7.296875 12.28125 6.421875 C 12.394531 5.546875 12.394531 4.828125 12.28125 4.265625 C 12.09375 3.242188 11.664062 2.796875 11 2.921875 C 10.5625 3.003906 10.257812 3.320312 10.09375 3.875 C 9.925781 4.425781 9.816406 5.078125 9.765625 5.828125 C 9.710938 6.578125 9.617188 7.332031 9.484375 8.09375 C 9.359375 8.863281 9.039062 9.554688 8.53125 10.171875 C 8.019531 10.785156 7.300781 11.175781 6.375 11.34375 C 5.0625 11.59375 3.9375 11.269531 3 10.375 C 2.0625 9.488281 1.4375 8.238281 1.125 6.625 C 0.914062 5.488281 0.898438 4.328125 1.078125 3.140625 C 1.265625 1.953125 1.625 0.890625 2.15625 -0.046875 L 5.109375 0.78125 C 4.628906 1.59375 4.285156 2.503906 4.078125 3.515625 C 3.878906 4.535156 3.847656 5.410156 3.984375 6.140625 C 4.085938 6.703125 4.269531 7.117188 4.53125 7.390625 C 4.789062 7.671875 5.125 7.769531 5.53125 7.6875 C 5.90625 7.613281 6.1875 7.375 6.375 6.96875 C 6.5625 6.570312 6.664062 6.09375 6.6875 5.53125 C 6.707031 4.96875 6.757812 4.351562 6.84375 3.6875 C 6.9375 3.019531 7.054688 2.390625 7.203125 1.796875 C 7.347656 1.210938 7.65625 0.691406 8.125 0.234375 C 8.601562 -0.222656 9.222656 -0.523438 9.984375 -0.671875 C 11.242188 -0.910156 12.34375 -0.601562 13.28125 0.25 C 14.226562 1.113281 14.859375 2.367188 15.171875 4.015625 Z M 15.171875 4.015625 "/></g></g></g><g fill="#77972a" fill-opacity="1"><g transform="translate(128.161546, 241.540796)"><g><path d="M 13.046875 -0.5625 L 9.03125 -4.46875 L 6.78125 -2.140625 L 10.4375 1.40625 L 9.265625 2.59375 L 5.609375 -0.953125 L 2.40625 2.34375 L 1.046875 1.03125 L 8.859375 -7 L 14.25 -1.765625 Z M 13.046875 -0.5625 "/></g></g></g><g fill="#77972a" fill-opacity="1"><g transform="translate(137.291418, 250.229562)"><g><path d="M 7.234375 -6.734375 C 8.785156 -7.003906 10.253906 -6.671875 11.640625 -5.734375 C 13.035156 -4.804688 13.90625 -3.570312 14.25 -2.03125 C 14.59375 -0.488281 14.316406 0.941406 13.421875 2.265625 C 12.535156 3.597656 11.3125 4.394531 9.75 4.65625 C 8.195312 4.925781 6.722656 4.59375 5.328125 3.65625 C 3.941406 2.726562 3.078125 1.492188 2.734375 -0.046875 C 2.398438 -1.585938 2.675781 -3.019531 3.5625 -4.34375 C 4.457031 -5.675781 5.679688 -6.472656 7.234375 -6.734375 Z M 10.71875 -4.296875 C 9.789062 -4.921875 8.785156 -5.132812 7.703125 -4.9375 C 6.628906 -4.75 5.78125 -4.191406 5.15625 -3.265625 C 4.539062 -2.347656 4.34375 -1.347656 4.5625 -0.265625 C 4.789062 0.816406 5.363281 1.660156 6.28125 2.265625 C 7.195312 2.878906 8.191406 3.082031 9.265625 2.875 C 10.347656 2.675781 11.195312 2.113281 11.8125 1.1875 C 12.4375 0.269531 12.632812 -0.71875 12.40625 -1.78125 C 12.1875 -2.851562 11.625 -3.691406 10.71875 -4.296875 Z M 10.71875 -4.296875 "/></g></g></g><g fill="#77972a" fill-opacity="1"><g transform="translate(151.16853, 259.038142)"><g><path d="M 7.921875 3.296875 L 7.328125 -0.625 C 7.234375 -0.65625 7.078125 -0.710938 6.859375 -0.796875 L 4.40625 -1.828125 L 3.109375 1.28125 L 1.359375 0.5625 L 5.65625 -9.78125 L 9.859375 -8.03125 C 11.171875 -7.488281 12.0625 -6.757812 12.53125 -5.84375 C 13.007812 -4.925781 13.015625 -3.90625 12.546875 -2.78125 C 12.203125 -1.945312 11.722656 -1.320312 11.109375 -0.90625 C 10.503906 -0.488281 9.804688 -0.296875 9.015625 -0.328125 L 9.90625 4.109375 Z M 5.0625 -3.40625 L 7.515625 -2.375 C 9.179688 -1.6875 10.300781 -2.035156 10.875 -3.421875 C 11.425781 -4.765625 10.867188 -5.78125 9.203125 -6.46875 L 6.75 -7.5 Z M 5.0625 -3.40625 "/></g></g></g><g fill="#77972a" fill-opacity="1"><g transform="translate(164.9197, 264.236877)"><g/></g></g><g fill="#77972a" fill-opacity="1"><g transform="translate(171.989146, 266.157712)"><g><path d="M 2.71875 -10.953125 L 7.296875 -10.4375 C 8.960938 -10.25 10.273438 -9.570312 11.234375 -8.40625 C 12.203125 -7.238281 12.59375 -5.847656 12.40625 -4.234375 C 12.226562 -2.628906 11.535156 -1.359375 10.328125 -0.421875 C 9.117188 0.503906 7.671875 0.867188 5.984375 0.671875 L 1.453125 0.171875 Z M 4.40625 -9.0625 L 3.53125 -1.3125 L 6.265625 -1 C 7.359375 -0.875 8.304688 -1.128906 9.109375 -1.765625 C 9.921875 -2.410156 10.390625 -3.296875 10.515625 -4.421875 C 10.640625 -5.546875 10.367188 -6.519531 9.703125 -7.34375 C 9.046875 -8.164062 8.164062 -8.640625 7.0625 -8.765625 Z M 4.40625 -9.0625 "/></g></g></g><g fill="#77972a" fill-opacity="1"><g transform="translate(187.528101, 267.397421)"><g><path d="M 3.359375 -0.125 L 1.46875 -0.046875 L 1.078125 -11.25 L 2.96875 -11.328125 Z M 3.359375 -0.125 "/></g></g></g><g fill="#77972a" fill-opacity="1"><g transform="translate(195.591361, 267.165175)"><g><path d="M 11 -2.0625 L 9.171875 -1.71875 L 1.8125 -8.515625 L 3.296875 -0.625 L 1.4375 -0.265625 L -0.625 -11.28125 L 1.203125 -11.625 L 8.59375 -4.828125 L 7.109375 -12.734375 L 8.9375 -13.078125 Z M 11 -2.0625 "/></g></g></g><g fill="#77972a" fill-opacity="1"><g transform="translate(211.431617, 263.83808)"><g><path d="M 10.359375 -4.234375 L 8.640625 -3.53125 L 0.078125 -8.703125 L 3.109375 -1.265625 L 1.359375 -0.5625 L -2.875 -10.9375 L -1.15625 -11.625 L 7.453125 -6.453125 L 4.40625 -13.90625 L 6.125 -14.609375 Z M 10.359375 -4.234375 "/></g></g></g><g fill="#77972a" fill-opacity="1"><g transform="translate(226.166462, 257.365601)"><g><path d="M 2.765625 -13.125 L -2.359375 -9.796875 L -0.71875 -7.265625 L 3.875 -10.234375 L 4.8125 -8.8125 L 0.21875 -5.84375 L 1.890625 -3.25 L 7.1875 -6.671875 L 8.109375 -5.25 L 1.234375 -0.796875 L -4.859375 -10.203125 L 1.84375 -14.5625 Z M 2.765625 -13.125 "/></g></g></g><g fill="#77972a" fill-opacity="1"><g transform="translate(237.67436, 249.59285)"><g><path d="M 6.25 -5.890625 L 2.421875 -6.953125 C 2.359375 -6.867188 2.238281 -6.742188 2.0625 -6.578125 L 0.125 -4.75 L 2.4375 -2.296875 L 1.0625 -1 L -6.625 -9.15625 L -3.3125 -12.28125 C -2.269531 -13.257812 -1.234375 -13.773438 -0.203125 -13.828125 C 0.828125 -13.890625 1.757812 -13.472656 2.59375 -12.578125 C 3.207031 -11.929688 3.582031 -11.242188 3.71875 -10.515625 C 3.851562 -9.785156 3.742188 -9.066406 3.390625 -8.359375 L 7.796875 -7.34375 Z M -1.046875 -6 L 0.890625 -7.828125 C 2.210938 -9.066406 2.359375 -10.226562 1.328125 -11.3125 C 0.335938 -12.363281 -0.816406 -12.269531 -2.140625 -11.03125 L -4.078125 -9.203125 Z M -1.046875 -6 "/></g></g></g><path fill="#9ed31f" d="M 175.992188 210.617188 C 175.992188 210.617188 177.046875 198.265625 182.738281 187.925781 C 188.4375 177.589844 191.15625 175.480469 191.597656 176.535156 C 192.035156 177.589844 181.777344 190.992188 179.847656 204.570312 C 177.921875 218.152344 177.21875 223.058594 178.625 224.457031 C 180.023438 225.863281 180.855469 224.855469 181.03125 223.761719 C 181.207031 222.664062 181.863281 210.398438 182.480469 209.085938 C 183.089844 207.769531 185.066406 210.445312 188.132812 207.636719 C 191.203125 204.835938 194.203125 199.707031 193.964844 198.484375 C 193.71875 197.257812 191.859375 196.46875 191.859375 196.46875 C 191.859375 196.46875 199.96875 193.226562 200.054688 190.117188 C 200.140625 187.007812 196.332031 186.570312 196.332031 186.570312 C 196.332031 186.570312 204.042969 181.136719 203.035156 177.808594 C 202.03125 174.476562 195.894531 175.746094 195.761719 175.046875 C 195.628906 174.34375 199.484375 168.171875 197.90625 165.324219 C 196.332031 162.476562 189.539062 164.222656 187.867188 168.523438 C 186.203125 172.8125 184.667969 175.441406 184.363281 175.398438 C 184.058594 175.347656 182.433594 170.667969 179.585938 172.023438 C 176.734375 173.382812 175.460938 176.449219 176.734375 180.523438 C 178.007812 184.59375 177.265625 187.007812 176.125 186.523438 C 174.984375 186.039062 174.71875 182.972656 172.355469 184.375 C 169.988281 185.78125 170.378906 189.105469 171.386719 192.484375 C 172.394531 195.855469 172.964844 196.554688 172.269531 197.34375 C 171.566406 198.132812 168.9375 198.875 170.558594 202.554688 C 172.175781 206.238281 175.507812 207.730469 175.992188 210.617188 " fill-opacity="1" fill-rule="evenodd"/><path fill="#f17e00" d="M 198.914062 200.675781 C 198.914062 200.675781 208.90625 174.210938 213.996094 167.203125 C 219.078125 160.195312 222.671875 158.441406 225.917969 159.933594 C 228.125 160.945312 228.503906 162.648438 227.695312 164.957031 C 223.890625 175.808594 210.332031 186.808594 203.925781 203.65625 L 198.914062 200.675781 " fill-opacity="1" fill-rule="evenodd"/><path fill="#f17e00" d="M 187.515625 220.125 C 187.515625 220.125 191.988281 204.265625 194.621094 204.21875 C 197.25 204.179688 190.765625 221.960938 190.765625 221.960938 C 190.765625 221.960938 194.667969 223.667969 195.496094 222.882812 C 196.332031 222.09375 200.84375 206.371094 203.300781 206.457031 C 205.753906 206.542969 199.09375 223.449219 199.09375 223.449219 C 199.09375 223.449219 204.222656 222.796875 207.292969 215.171875 C 210.359375 207.550781 209.058594 199.382812 205.800781 196.507812 C 204.972656 195.78125 203.625 195.324219 202.097656 195.132812 C 187.027344 193.238281 183.839844 217.617188 187.515625 220.125 " fill-opacity="1" fill-rule="evenodd"/><g clip-path="url(#f79d91f693)"><path fill="#e9cd5f" d="M 227.761719 174.183594 C 230.21875 171.21875 233.863281 168.582031 236.355469 167.761719 C 241.40625 166.097656 249.382812 169.21875 246.699219 173.351562 C 243.652344 178.039062 227.21875 177.515625 223.242188 182.171875 C 224.492188 179.210938 225.628906 176.746094 227.761719 174.183594 " fill-opacity="1" fill-rule="evenodd"/></g><g clip-path="url(#b72303df3c)"><path fill="#77972a" d="M 168.28125 177.324219 C 168.28125 177.324219 161.441406 172.632812 163.191406 164.402344 C 164.945312 156.164062 170.378906 154.585938 173.230469 152.175781 C 176.078125 149.773438 176.695312 147.363281 177.171875 147.886719 C 177.65625 148.410156 182.03125 162.78125 179.671875 169.351562 C 177.316406 175.925781 171.917969 176.488281 171.917969 176.488281 C 171.917969 176.488281 170.996094 170.972656 171.957031 165.582031 C 172.925781 160.195312 173.84375 157.304688 173.84375 157.304688 C 168.226562 164.726562 168.710938 170 170.054688 176.972656 C 170.441406 178.960938 168.28125 177.324219 168.28125 177.324219 " fill-opacity="1" fill-rule="evenodd"/></g><path fill="#9ed31f" d="M 166.75 219.101562 C 166.75 219.101562 160.375 205.675781 154.765625 203.359375 C 149.160156 201.039062 142.59375 202.097656 140.851562 198.335938 C 139.113281 194.570312 142.496094 192.058594 142.496094 192.058594 C 142.496094 192.058594 134.183594 190.027344 134.085938 184.714844 C 133.992188 179.402344 138.871094 179.933594 140.804688 180.515625 C 142.738281 181.089844 142.011719 179.550781 141.433594 178.390625 C 140.851562 177.230469 134.621094 172.839844 134.332031 168.394531 C 134.039062 163.953125 139.644531 160.765625 142.640625 163.953125 C 145.636719 167.136719 148.539062 173.269531 149.644531 172.742188 C 150.757812 172.210938 151.964844 166.945312 154.960938 167.8125 C 157.953125 168.679688 158.730469 173.5625 158.347656 177.085938 C 157.953125 180.613281 158.585938 181.914062 159.453125 181.574219 C 160.328125 181.238281 161.96875 176.507812 164.480469 177.90625 C 166.992188 179.308594 166.894531 183.894531 166.21875 191.136719 C 165.542969 198.382812 162.308594 200.363281 164.675781 206.789062 C 167.039062 213.207031 169.652344 217.554688 169.066406 218.859375 C 168.492188 220.160156 166.75 219.101562 166.75 219.101562 " fill-opacity="1" fill-rule="evenodd"/><path fill="#f42805" d="M 147.628906 185.496094 C 153.488281 185.390625 157.511719 185.402344 158.195312 186.257812 C 159.253906 187.589844 151.214844 190.402344 146.257812 191.886719 C 149.855469 214.105469 163.59375 231.597656 187.75 231.148438 C 212.414062 230.691406 223.585938 213.097656 226.113281 190.398438 C 219.390625 190.441406 198.863281 190.398438 195.714844 188.277344 C 193.605469 186.855469 214.851562 185.90625 228.722656 185.695312 C 235.082031 185.59375 241.140625 185.394531 239.65625 192.726562 C 234.394531 218.675781 213.777344 238.039062 189.140625 238.039062 C 165.003906 238.039062 144.722656 219.449219 138.96875 194.292969 C 136.828125 184.945312 140.089844 185.621094 147.628906 185.496094 " fill-opacity="1" fill-rule="evenodd"/><g clip-path="url(#614e7be983)"><path fill="#f42805" d="M 165.78125 229.800781 C 165.523438 235.972656 165.132812 238.519531 168.304688 239.90625 C 174.183594 242.492188 201.308594 242.492188 207.179688 239.90625 C 210.351562 238.519531 209.96875 235.972656 209.710938 229.800781 L 187.429688 233.132812 L 165.78125 229.800781 " fill-opacity="1" fill-rule="evenodd"/></g><path fill="#ffffff" d="M 221.84375 219.292969 C 221.84375 219.292969 227.800781 206.847656 229.820312 199.667969 C 231.835938 192.484375 231.703125 190.640625 232.492188 190.640625 C 233.28125 190.640625 235.605469 191.382812 233.765625 197.609375 C 232.882812 200.589844 229.585938 207.707031 226.933594 212.210938 C 224.050781 217.113281 221.84375 219.292969 221.84375 219.292969 " fill-opacity="1" fill-rule="evenodd"/><path fill="#e9cd5f" d="M 194.230469 151.566406 C 195.773438 151.566406 197.03125 152.820312 197.03125 154.367188 C 197.03125 155.917969 195.773438 157.171875 194.230469 157.171875 C 192.679688 157.171875 191.421875 155.917969 191.421875 154.367188 C 191.421875 152.820312 192.679688 151.566406 194.230469 151.566406 Z M 206.152344 159.539062 C 207.894531 159.539062 209.304688 160.953125 209.304688 162.695312 C 209.304688 164.433594 207.894531 165.847656 206.152344 165.847656 C 204.410156 165.847656 202.988281 164.433594 202.988281 162.695312 C 202.988281 160.953125 204.410156 159.539062 206.152344 159.539062 Z M 210.226562 151.476562 C 211.503906 151.476562 212.546875 152.515625 212.546875 153.800781 C 212.546875 155.082031 211.503906 156.125 210.226562 156.125 C 208.941406 156.125 207.902344 155.082031 207.902344 153.800781 C 207.902344 152.515625 208.941406 151.476562 210.226562 151.476562 Z M 154.335938 154.984375 C 156.132812 154.984375 157.582031 156.433594 157.582031 158.222656 C 157.582031 160.011719 156.132812 161.46875 154.335938 161.46875 C 152.546875 161.46875 151.097656 160.011719 151.097656 158.222656 C 151.097656 156.433594 152.546875 154.984375 154.335938 154.984375 " fill-opacity="1" fill-rule="evenodd"/></svg>